<?xml version="1.0" standalone="no"?>
<!DOCTYPE svg PUBLIC "-//W3C//DTD SVG 20010904//EN" "http://www.w3.org/TR/2001/REC-SVG-20010904/DTD/svg10.dtd">
<svg version="1.0" xmlns="http://www.w3.org/2000/svg" width="100.000000pt" height="100.000000pt" viewBox="0 0 100.000000 100.000000" preserveAspectRatio="xMidYMid meet">

  <g transform="translate(0.000000,100.000000) scale(0.100000,-0.100000)" fill="#666" stroke="none">
    <path d="M471 938 c-10 -24 -39 -97 -65 -164 l-47 -121 -67 -7 c-37 -3 -96 -6
-132 -7 -86 -1 -153 -11 -157 -25 -3 -8 206 -188 265 -230 2 -1 -17 -79 -42
-174 -36 -139 -42 -172 -31 -177 8 -3 77 35 152 83 76 48 145 88 154 88 8 0
77 -39 152 -88 77 -50 143 -86 151 -83 12 5 7 36 -30 177 -25 95 -44 173 -42
174 59 42 268 222 265 230 -4 14 -71 24 -157 25 -36 1 -95 4 -132 7 l-67 7
-47 121 c-67 173 -81 206 -94 206 -6 0 -19 -19 -29 -42z m100 -361 c19 -12 42
-38 52 -57 l17 -35 -25 -3 c-18 -2 -34 6 -54 27 -21 22 -38 31 -61 31 -23 0
-40 -9 -61 -31 -20 -21 -36 -29 -54 -27 l-25 3 17 35 c24 46 76 80 123 80 22
0 51 -9 71 -23z m-41 -92 c26 -32 -13 -81 -47 -59 -23 14 -28 41 -13 59 16 19
44 19 60 0z m-90 -75 c20 -21 37 -30 60 -30 23 0 40 9 60 30 17 18 38 30 54
30 24 0 25 -2 15 -27 -44 -117 -217 -119 -258 -3 -9 28 -8 30 16 30 15 0 36
-12 53 -30z" />
  </g>
</svg>
