<?xml version="1.0" standalone="no"?>
<!DOCTYPE svg PUBLIC "-//W3C//DTD SVG 20010904//EN"
 "http://www.w3.org/TR/2001/REC-SVG-20010904/DTD/svg10.dtd">
<svg version="1.0" xmlns="http://www.w3.org/2000/svg"
 width="510.000000pt" height="420.000000pt" viewBox="0 0 510.000000 420.000000"
 preserveAspectRatio="xMidYMid meet">

<g transform="translate(0.000000,420.000000) scale(0.100000,-0.100000)"
fill="#000000" stroke="none">
<path d="M2197 3751 c-152 -29 -319 -72 -372 -96 -16 -7 -55 -24 -86 -38 l-57
-25 -243 34 c-325 46 -616 74 -769 74 -133 0 -472 -23 -580 -40 -36 -5 -71
-10 -77 -10 -10 0 -13 -46 -13 -197 l0 -198 298 -100 c163 -54 304 -102 312
-106 26 -13 143 -37 205 -43 l60 -5 -50 9 c-194 38 -188 36 -228 95 -20 31
-37 58 -37 61 0 13 -52 73 -125 144 -89 85 -109 105 -254 235 -55 50 -100 93
-100 96 -4 35 690 52 961 25 230 -24 608 -78 602 -87 -8 -14 2 -11 99 30 125
53 273 96 435 126 122 23 161 25 392 25 245 0 265 -1 421 -31 129 -24 182 -39
248 -70 46 -21 86 -38 87 -36 2 2 -24 17 -58 33 l-61 29 39 8 c21 4 140 10
264 13 209 6 238 4 410 -20 102 -15 246 -38 320 -51 211 -38 760 -207 760
-233 0 -9 -83 -117 -99 -129 -9 -7 -61 -37 -116 -68 -112 -62 -138 -78 -145
-85 -16 -16 -129 -109 -150 -123 -32 -22 -177 -22 -415 -2 -93 8 -173 15 -177
15 -5 0 -7 3 -7 8 4 22 -2 42 -11 37 -5 -3 -7 -12 -3 -20 3 -9 -1 -15 -11 -15
-9 0 -15 3 -14 8 4 16 -14 72 -22 67 -5 -3 -5 -17 0 -31 12 -31 12 -34 1 -34
-6 0 -22 22 -38 49 -20 36 -31 47 -39 40 -9 -7 -17 3 -30 37 -15 40 -19 44
-26 28 -6 -13 -3 -34 11 -64 17 -37 20 -40 16 -15 -5 27 -4 26 14 -10 23 -47
24 -55 11 -55 -5 0 -10 8 -11 18 0 10 -3 12 -6 5 -10 -25 -20 -12 -52 67 -19
44 -35 80 -37 80 -9 0 11 -70 33 -112 13 -27 19 -48 14 -48 -12 0 -54 101 -76
184 -11 38 -20 65 -22 59 -2 -6 21 -97 51 -204 30 -107 69 -255 86 -329 18
-74 49 -180 71 -235 110 -282 90 -507 -65 -710 -17 -22 -37 -46 -45 -54 -14
-16 -44 -80 -55 -121 -4 -14 7 2 23 35 29 61 76 124 84 115 4 -5 37 -144 127
-530 21 -91 64 -282 95 -425 31 -143 79 -363 106 -490 28 -126 55 -254 62
-284 6 -30 12 -50 14 -44 2 6 -5 49 -15 96 l-19 87 44 16 c46 18 52 36 33 94
-6 18 -7 11 -4 -21 6 -46 6 -46 -33 -62 -21 -8 -39 -14 -41 -13 -2 3 -24 99
-67 301 -69 326 -139 644 -165 750 -109 456 -130 549 -123 554 4 3 15 20 24
36 8 17 25 48 36 70 12 22 34 79 48 126 22 71 26 100 22 160 -6 100 -29 196
-72 304 -19 50 -54 167 -76 260 -22 94 -47 190 -55 214 -8 25 -12 47 -9 49 3
3 74 -7 157 -21 206 -36 587 -65 632 -49 20 7 94 12 192 12 117 0 197 5 302
22 l142 23 -2 168 -3 168 -65 36 c-36 19 -72 42 -81 49 -8 8 -20 14 -25 14 -5
0 -131 36 -279 81 -248 74 -483 126 -650 145 -27 3 -90 12 -140 20 -107 17
-382 19 -539 3 -108 -10 -116 -10 -296 25 -172 33 -203 35 -430 40 -238 5
-249 4 -393 -23z m1522 -616 c0 -5 -4 -3 -9 5 -5 8 -9 22 -9 30 0 16 17 -16
18 -35z m60 -61 c24 -40 25 -44 11 -44 -10 0 -40 52 -40 70 0 18 7 11 29 -26z"/>
<path d="M1827 3454 c-37 -74 -33 -83 4 -10 17 32 29 60 27 62 -2 2 -16 -21
-31 -52z"/>
<path d="M1711 3449 c-13 -22 -21 -42 -19 -45 3 -2 15 14 27 37 13 22 21 42
19 45 -3 2 -15 -14 -27 -37z"/>
<path d="M1747 3461 c-24 -42 -21 -52 4 -13 12 18 20 35 17 37 -2 2 -12 -9
-21 -24z"/>
<path d="M1781 3454 c-12 -20 -20 -38 -18 -41 3 -2 14 13 26 33 12 20 20 38
18 41 -3 2 -14 -13 -26 -33z"/>
<path d="M1361 3135 c-13 -30 -27 -52 -32 -49 -5 3 -9 -4 -9 -15 0 -35 -17
-23 -25 17 l-7 37 -42 -85 c-31 -63 -46 -84 -59 -82 -9 2 -17 8 -17 14 0 5 6
8 14 5 8 -3 19 7 29 28 21 44 8 55 -16 13 -10 -18 -16 -25 -13 -16 3 10 1 20
-4 23 -4 3 -11 -8 -15 -25 -8 -38 -25 -48 -32 -21 -6 25 -23 28 -23 5 0 -13
-7 -15 -32 -10 -88 15 -179 27 -189 24 -10 -3 341 -59 364 -58 5 0 6 4 3 9 -3
5 1 28 9 52 9 23 13 52 10 63 -3 12 2 8 10 -9 8 -16 14 -46 13 -65 l-1 -35 -7
35 c-7 34 -8 34 -5 -7 1 -24 -2 -44 -9 -47 -6 -2 -1 -5 12 -5 21 -1 22 -4 22
-114 0 -92 -7 -150 -39 -308 -79 -395 -82 -425 -48 -569 33 -136 69 -196 179
-295 l77 -70 0 -150 c1 -275 -50 -685 -115 -938 -24 -95 -83 -276 -118 -367
-43 -108 -49 -126 -40 -118 3 4 22 44 40 90 30 73 49 129 118 353 63 205 126
687 126 969 0 75 3 136 7 136 4 0 41 -26 83 -58 79 -61 100 -76 100 -69 0 2
-37 32 -82 68 -164 126 -274 237 -316 317 -80 154 -81 304 -4 687 43 216 51
270 54 400 4 135 7 157 32 218 15 38 26 70 24 73 -3 2 -15 -21 -27 -51z m-106
-134 c-9 -28 -21 -51 -26 -51 -14 0 -11 15 13 65 28 57 35 50 13 -14z m62 -18
c-3 -10 -5 -2 -5 17 0 19 2 27 5 18 2 -10 2 -26 0 -35z"/>
<path d="M2973 2933 l27 -4 -31 -32 c-47 -46 -69 -102 -69 -175 0 -154 100
-252 256 -252 120 0 219 82 244 204 12 57 3 111 -25 167 -13 25 -13 25 18 22
l32 -2 -35 10 c-38 11 -255 49 -280 48 -9 0 -6 -5 8 -11 18 -9 22 -19 22 -54
0 -87 -37 -124 -124 -124 -93 0 -116 32 -76 109 26 52 65 81 109 82 l36 1 -40
9 c-22 4 -53 7 -70 7 l-30 -1 28 -4z m285 -250 c-4 -34 -33 -43 -43 -14 -8 27
1 41 26 41 16 0 20 -6 17 -27z m-18 -139 c0 -23 -56 -37 -94 -24 -58 19 -44
35 29 35 42 0 65 -4 65 -11z"/>
<path d="M1744 2807 l-142 -41 -21 -43 c-26 -54 -28 -149 -5 -196 42 -83 113
-127 204 -127 131 0 220 89 220 220 0 83 -40 158 -106 197 -18 11 -18 12 6 21
57 24 -20 9 -156 -31z m173 -23 c20 -20 24 -31 19 -57 -13 -63 -66 -90 -129
-63 -65 27 -78 93 -24 126 46 29 102 26 134 -6z m-212 -185 c8 -25 1 -34 -20
-26 -19 8 -20 47 -1 47 8 0 18 -9 21 -21z m73 -135 c26 -8 10 -24 -24 -24 -37
0 -74 15 -74 29 0 8 67 5 98 -5z"/>
<path d="M4750 2693 c0 -10 45 -260 101 -556 55 -296 98 -541 95 -544 -3 -3
-103 9 -223 27 -120 18 -222 33 -228 34 -5 0 -9 -6 -8 -14 1 -8 27 -208 58
-443 32 -236 55 -431 51 -434 -3 -3 -118 -2 -256 3 l-250 9 1 -30 c1 -24 3
-25 6 -7 4 21 8 22 111 21 59 -1 174 -4 256 -8 l148 -6 -5 60 c-4 33 -9 83
-12 110 l-6 50 23 -42 c12 -24 25 -43 29 -43 4 0 25 20 47 45 l40 45 28 -80
c16 -44 32 -80 35 -80 4 0 12 21 18 48 19 77 24 79 61 23 17 -28 35 -51 39
-51 4 0 12 17 18 37 8 29 11 -28 12 -244 0 -156 -2 -283 -5 -283 -3 0 -105 32
-226 71 -120 39 -221 69 -224 67 -4 -5 437 -148 455 -148 8 0 11 112 11 395 0
217 3 395 8 395 4 0 38 -9 76 -20 82 -23 80 -14 -2 12 -93 29 -89 33 -94 -90
-3 -62 -11 -121 -19 -141 l-15 -34 -33 51 c-18 29 -37 52 -41 52 -4 0 -13 -23
-20 -50 -7 -28 -15 -52 -19 -54 -4 -3 -18 26 -31 65 -13 38 -27 69 -31 69 -4
0 -25 -21 -48 -46 l-40 -45 -22 43 c-12 24 -25 45 -29 48 -9 6 -94 650 -87
657 3 3 104 -9 224 -27 120 -18 223 -33 228 -34 6 0 9 4 8 9 0 6 -47 256 -104
558 -56 301 -99 550 -96 553 6 6 236 -11 307 -23 19 -3 32 -2 28 1 -6 8 -255
35 -315 36 -25 0 -33 -4 -33 -17z"/>
<path d="M2320 2462 c0 -57 58 -78 121 -44 37 19 70 53 62 64 -2 5 -44 8 -94
8 l-89 0 0 -28z m110 -11 c0 -13 -29 -41 -41 -41 -20 0 -49 21 -49 35 0 11 12
15 45 15 25 0 45 -4 45 -9z"/>
<path d="M3315 2286 c-95 -45 -144 -126 -145 -236 0 -154 106 -260 260 -260
154 0 260 106 260 260 -1 154 -106 260 -260 260 -48 0 -78 -7 -115 -24z m220
-5 c92 -41 145 -126 145 -231 0 -148 -102 -250 -250 -250 -148 0 -250 102
-250 250 0 105 53 190 145 231 54 25 156 25 210 0z"/>
<path d="M1405 2201 c-80 -50 -115 -117 -115 -221 0 -82 17 -131 63 -178 45
-47 78 -62 137 -62 28 0 63 6 78 14 39 21 89 75 106 118 21 49 21 167 0 216
-17 43 -67 97 -106 118 -39 20 -127 18 -163 -5z m171 -10 c67 -41 104 -116
104 -211 0 -138 -76 -230 -190 -230 -114 0 -190 92 -190 230 0 95 37 170 104
211 42 26 130 26 172 0z"/>
<path d="M2370 1952 c-84 -54 -82 -61 12 -56 118 6 258 25 258 35 0 22 -52 39
-136 45 -86 5 -91 4 -134 -24z"/>
<path d="M3046 1770 c-10 -28 -16 -54 -12 -57 3 -4 6 2 6 13 0 13 3 15 8 7 5
-9 15 2 30 32 30 61 27 71 -4 15 -14 -25 -23 -37 -20 -27 24 79 18 90 -8 17z"/>
<path d="M3101 1774 c-7 -25 -10 -48 -8 -51 3 -2 10 17 16 43 7 25 10 48 8 51
-3 2 -10 -17 -16 -43z"/>
<path d="M1890 1085 c0 -6 9 -25 21 -44 79 -130 163 -363 200 -551 11 -58 30
-133 42 -167 20 -57 25 -63 49 -63 26 0 28 -3 28 -41 0 -55 -59 -134 -110
-148 -70 -20 -141 -23 -222 -11 l-83 13 -106 106 c-58 58 -136 144 -174 191
-77 97 -113 134 -70 75 58 -81 156 -193 252 -287 l98 -96 86 -12 c69 -10 103
-10 168 0 l82 13 45 55 c42 51 45 58 42 106 -3 47 -5 51 -30 54 -22 3 -30 12
-47 56 -11 29 -28 100 -39 157 -20 100 -55 223 -104 359 -30 81 -128 262 -128
235z"/>
<path d="M3088 907 c-45 -160 -98 -458 -98 -550 0 -66 -15 -127 -51 -201 -11
-22 -19 -43 -19 -46 0 -3 20 -21 45 -38 44 -31 50 -32 143 -32 127 0 204 26
276 92 28 26 54 48 59 48 4 0 7 4 7 10 0 5 31 61 69 123 79 131 93 157 88 157
-3 0 -40 -60 -83 -132 -134 -226 -217 -284 -409 -287 -98 -2 -102 -1 -143 29
-45 32 -49 39 -31 57 27 27 52 122 59 228 10 136 61 415 101 553 17 57 29 108
27 112 -2 5 -20 -50 -40 -123z"/>
<path d="M3746 717 c-25 -45 -58 -102 -72 -127 -61 -106 -66 -116 -47 -91 26
34 174 293 170 297 -2 2 -25 -33 -51 -79z"/>
<path d="M1747 704 c12 -17 30 -37 40 -45 13 -10 12 -6 -4 17 -12 17 -30 37
-40 45 -13 10 -12 6 4 -17z"/>
<path d="M4102 690 c0 -14 2 -19 5 -12 2 6 2 18 0 25 -3 6 -5 1 -5 -13z"/>
<path d="M1699 683 c5 -10 22 -31 36 -48 22 -25 24 -26 14 -6 -10 21 -9 23 6
17 28 -11 -2 22 -37 40 -28 14 -29 14 -19 -3z"/>
<path d="M4112 640 c0 -14 2 -19 5 -12 2 6 2 18 0 25 -3 6 -5 1 -5 -13z"/>
<path d="M4121 594 c0 -11 3 -14 6 -6 3 7 2 16 -1 19 -3 4 -6 -2 -5 -13z"/>
<path d="M4132 550 c0 -14 2 -19 5 -12 2 6 2 18 0 25 -3 6 -5 1 -5 -13z"/>
<path d="M4142 500 c0 -14 2 -19 5 -12 2 6 2 18 0 25 -3 6 -5 1 -5 -13z"/>
<path d="M4415 488 c-3 -7 -6 -89 -7 -183 l-3 -170 -92 -64 c-51 -36 -91 -67
-89 -68 2 -2 47 26 100 62 l96 66 0 179 c0 133 3 180 13 183 9 4 9 6 -1 6 -7
1 -15 -5 -17 -11z"/>
<path d="M4152 455 c0 -11 6 -42 13 -70 7 -27 13 -41 13 -30 0 11 -6 43 -13
70 -7 28 -13 41 -13 30z"/>
</g>
</svg>
