<svg width="20" height="16" viewBox="0 0 20 16" fill="none" xmlns="http://www.w3.org/2000/svg">
  <path d="M4.11272 5.936H1.88872L1.52072 7H0.344719L2.35272 1.408H3.65672L5.66472 7H4.48072L4.11272 5.936ZM3.80872 5.04L3.00072 2.704L2.19272 5.04H3.80872ZM2.39131 14.056H4.90331V15H1.09531V14.136L3.59131 10.36H1.09531V9.416H4.90331V10.28L2.39131 14.056Z" fill="#212121" />
  <path d="M20.0173 11.1082L19.7648 10.8557C19.5975 10.6883 19.3261 10.6883 19.1587 10.8557L16.1786 13.8531V0.428572C16.1786 0.191893 15.9867 0 15.75 0H15.3929C15.1562 0 14.9643 0.191893 14.9643 0.428572V13.8531L11.9841 10.8557C11.8168 10.6883 11.5454 10.6883 11.378 10.8557L11.1255 11.1082C10.9582 11.2756 10.9582 11.5469 11.1255 11.7143L15.2684 15.8745C15.4357 16.0418 15.7071 16.0418 15.8745 15.8745L20.0174 11.7143C20.1847 11.5469 20.1847 11.2756 20.0173 11.1082V11.1082Z" fill="#212121" />
</svg>
