<svg width="20" height="16" viewBox="0 0 20 16" fill="none" xmlns="http://www.w3.org/2000/svg">
  <path d="M6.71965 7.42L6.34965 9.15H7.66965V10.15H6.13965L5.73965 12H4.64965L5.04965 10.15H3.08965L2.68965 12H1.59965L1.99965 10.15H0.449648V9.15H2.20965L2.57965 7.42H1.03965V6.42H2.78965L3.17965 4.6H4.26965L3.87965 6.42H5.83965L6.22965 4.6H7.31965L6.92965 6.42H8.25965V7.42H6.71965ZM5.62965 7.42H3.66965L3.29965 9.15H5.25965L5.62965 7.42Z" fill="#212121" />
  <path d="M20.0173 11.1082L19.7648 10.8557C19.5975 10.6883 19.3261 10.6883 19.1587 10.8557L16.1786 13.8531V0.428572C16.1786 0.191893 15.9867 0 15.75 0H15.3929C15.1562 0 14.9643 0.191893 14.9643 0.428572V13.8531L11.9841 10.8557C11.8168 10.6883 11.5454 10.6883 11.378 10.8557L11.1255 11.1082C10.9582 11.2756 10.9582 11.5469 11.1255 11.7143L15.2684 15.8745C15.4357 16.0418 15.7071 16.0418 15.8745 15.8745L20.0174 11.7143C20.1847 11.5469 20.1847 11.2756 20.0173 11.1082Z" fill="#212121" />
</svg>
